{
    "asset" : {
        "generator" : "Khronos glTF Blender I/O v1.0.5",
        "version" : "2.0"
    },
    "scene" : 0,
    "scenes" : [
        {
            "name" : "Scene",
            "nodes" : [
                0,
                1,
                2,
                3,
                4
            ]
        }
    ],
    "nodes" : [
        {
            "name" : "Lamp.002",
            "rotation" : [
                0.3299708962440491,
                0.723747968673706,
                -0.26458895206451416,
                0.5452529191970825
            ],
            "translation" : [
                -2.7162890434265137,
                -0.720227837562561,
                1.1029056310653687
            ]
        },
        {
            "name" : "Lamp.001",
            "rotation" : [
                0.3299708962440491,
                0.723747968673706,
                -0.26458895206451416,
                0.5452529191970825
            ],
            "translation" : [
                1.771519660949707,
                -3.2107629776000977,
                -3.022730827331543
            ]
        },
        {
            "mesh" : 0,
            "name" : "Plane"
        },
        {
            "name" : "Lamp",
            "rotation" : [
                0.16907575726509094,
                0.7558803558349609,
                -0.27217137813568115,
                0.570947527885437
            ],
            "translation" : [
                4.076245307922363,
                5.903861999511719,
                -1.0054539442062378
            ]
        },
        {
            "name" : "Camera",
            "rotation" : [
                0.48170700669288635,
                0.3342514932155609,
                -0.21292176842689514,
                0.7816000580787659
            ],
            "translation" : [
                7.481131553649902,
                5.34366512298584,
                6.5076398849487305
            ]
        }
    ],
    "materials" : [
        {
            "doubleSided" : true,
            "name" : "HachaMetal",
            "pbrMetallicRoughness" : {
                "baseColorTexture" : {
                    "index" : 0,
                    "texCoord" : 0
                },
                "metallicFactor" : 0,
                "roughnessFactor" : 0.5
            }
        },
        {
            "doubleSided" : true,
            "name" : "HachaMadera",
            "pbrMetallicRoughness" : {
                "baseColorTexture" : {
                    "index" : 1,
                    "texCoord" : 0
                },
                "metallicFactor" : 0,
                "roughnessFactor" : 0.5
            }
        }
    ],
    "meshes" : [
        {
            "name" : "Plane",
            "primitives" : [
                {
                    "attributes" : {
                        "POSITION" : 0,
                        "NORMAL" : 1,
                        "TEXCOORD_0" : 2
                    },
                    "indices" : 3,
                    "material" : 0
                },
                {
                    "attributes" : {
                        "POSITION" : 4,
                        "NORMAL" : 5,
                        "TEXCOORD_0" : 6
                    },
                    "indices" : 7,
                    "material" : 1
                }
            ]
        }
    ],
    "textures" : [
        {
            "source" : 0
        },
        {
            "source" : 0
        }
    ],
    "images" : [
        {
            "bufferView" : 4,
            "mimeType" : "image/png",
            "name" : "Hacha"
        }
    ],
    "accessors" : [
        {
            "bufferView" : 0,
            "componentType" : 5126,
            "count" : 240,
            "max" : [
                1.1071754693984985,
                0.23691608011722565,
                4.287487983703613
            ],
            "min" : [
                -1.1999907493591309,
                -0.23691608011722565,
                -1.2565133571624756
            ],
            "type" : "VEC3"
        },
        {
            "bufferView" : 1,
            "componentType" : 5126,
            "count" : 240,
            "type" : "VEC3"
        },
        {
            "bufferView" : 2,
            "componentType" : 5126,
            "count" : 240,
            "type" : "VEC2"
        },
        {
            "bufferView" : 3,
            "componentType" : 5123,
            "count" : 360,
            "type" : "SCALAR"
        },
        {
            "bufferView" : 5,
            "componentType" : 5126,
            "count" : 80,
            "max" : [
                -0.36287248134613037,
                0.15881581604480743,
                4.287487983703613
            ],
            "min" : [
                -1.0030460357666016,
                -0.15881581604480743,
                -1.2915431261062622
            ],
            "type" : "VEC3"
        },
        {
            "bufferView" : 6,
            "componentType" : 5126,
            "count" : 80,
            "type" : "VEC3"
        },
        {
            "bufferView" : 7,
            "componentType" : 5126,
            "count" : 80,
            "type" : "VEC2"
        },
        {
            "bufferView" : 8,
            "componentType" : 5123,
            "count" : 120,
            "type" : "SCALAR"
        }
    ],
    "bufferViews" : [
        {
            "buffer" : 0,
            "byteLength" : 2880,
            "byteOffset" : 0
        },
        {
            "buffer" : 0,
            "byteLength" : 2880,
            "byteOffset" : 2880
        },
        {
            "buffer" : 0,
            "byteLength" : 1920,
            "byteOffset" : 5760
        },
        {
            "buffer" : 0,
            "byteLength" : 720,
            "byteOffset" : 7680
        },
        {
            "buffer" : 0,
            "byteLength" : 393973,
            "byteOffset" : 8400
        },
        {
            "buffer" : 0,
            "byteLength" : 960,
            "byteOffset" : 402376
        },
        {
            "buffer" : 0,
            "byteLength" : 960,
            "byteOffset" : 403336
        },
        {
            "buffer" : 0,
            "byteLength" : 640,
            "byteOffset" : 404296
        },
        {
            "buffer" : 0,
            "byteLength" : 240,
            "byteOffset" : 404936
        }
    ],
    "buffers" : [
        {
            "byteLength" : 405176,
            "uri" : "data:application/octet-stream;base64,"
        }
    ]
}
